<svg id="Capa_1" data-name="Capa 1" xmlns="http://www.w3.org/2000/svg" viewBox="0 0 335.78 463.25"><path d="M362.06,433.71c-2.29-7.2-4.85-14.32-6.82-21.61-11.85-43.71-6-85.51,13.93-125.71,3.87-7.8,8.22-15.38,11.78-23.31,3.07-6.84,4.56-14.14,2.41-21.67-1.3-4.51-1.94-4.77-6.29-3a25,25,0,0,1-30.47-10.55c6.27,1,12.2,2.11,18.16,3a14.82,14.82,0,0,0,3.66-.34,14.17,14.17,0,0,0-.7-3.62c-4.45-9-8.46-18.17-10.29-28.13-1.73-9.35-1.41-18.46,3.51-26.95.53-.9,1.12-1.77,1.72-2.71.55,6.52.84,12.89,1.68,19.19a44.54,44.54,0,0,0,9.78,22.13A93.16,93.16,0,0,1,381.49,222c.91,1.56,1.89,3.54,1.7,5.19-.55,4.57,2,7.21,4.47,10.59,7.1,9.86,8.38,21.07,5.1,32.71-1.39,4.91-3.29,9.68-4.88,14.54a45.07,45.07,0,0,0-1,4.47c6.42.12,12.65-2,18.53.38l.09,1a28,28,0,0,0-2.83,1.32c-4.69,2.75-9.66,5.14-13.91,8.46a29,29,0,0,0-7.19,9c-3.84,7.15-7.11,14.61-10.88,22.49,8.69-5,16-11.52,25.89-12.32,1.23-.1,2.54.83,4.3,1.45-4.31,3.57-8.28,6.56-11.9,9.92a147.63,147.63,0,0,0-24.64,30.47c-1.94,3.12-1.88,7.78-1.89,11.73,0,19.21.26,38.41.43,57.62,0,.81,0,1.63,0,2.45Z" transform="translate(-200.05 -79.63)"/><path d="M447.4,317c3.7,7.52,7.61,13.61,14.83,17.2,7.79,3.87,15.56,7.86,22.92,12.48,6.89,4.31,11.64,10.72,14.61,18.41,3.86,10,8,19.81,16.61,27.31-5.24,2.23-10,1.65-14.65-.22a42.2,42.2,0,0,1-16.12-12c-9.88-11.37-19.79-22.76-32.33-31.39a90.19,90.19,0,0,0-30.39-14c-5.41-1.26-11.37-.22-16.59-.22,9.45-6.78,9.31-17.33,8.13-27.93-2-18.09-8.23-35.13-13.72-52.34a15.82,15.82,0,0,1-.79-3.54c19,30.21,43.8,51.32,82,52C473.82,315.72,461.7,318,447.4,317Z" transform="translate(-200.05 -79.63)"/><path d="M274.16,288.32c1.47,7.95,2.3,15.66,4.38,23,3.18,11.17,7.17,22.11,11,33.11a11.35,11.35,0,0,0,2.95,4.63c11.84,10.52,17.35,24.36,20.56,39.3,1.73,8.06,2.74,16.28,4.08,24.42l-.8.27c-1.27-2.44-2.53-4.88-3.8-7.31-7.64-14.61-15.22-29.31-26.5-41.52-4.39-4.75-9.72-8.7-15-12.51-2.12-1.55-5.17-2.09-7.88-2.5-4.38-.66-6.91-2.59-7.67-7.16-2.46-14.61-4.8-29.23-7.18-43.85-.07-.42-.16-.83-.18-.91-2.09.36-4.8,1.67-5.89.84-2.37-1.8-4.86-4.43-5.63-7.19a205.42,205.42,0,0,1-5.76-25.78,145.61,145.61,0,0,1,5-65,7.52,7.52,0,0,1,1.12-2.35c-1.32,23.7-.94,47.16,7.5,70.27.34-5.2.25-9.92,1.07-14.47A55.75,55.75,0,0,1,250,240.44a208.62,208.62,0,0,0,18.93,69.91A53,53,0,0,1,274.16,288.32Z" transform="translate(-200.05 -79.63)"/><path d="M261.66,406.45c-5.27,1.47-8.8-.84-11.9-4-.31.16-.6.22-.63.35a62.17,62.17,0,0,1-9.19,18.61c-4.42,6.29-7.77,13.35-11.29,20.23-4.31,8.42-11.57,12.13-20.5,13.71,22.75-26,31.76-56.31,29-91.26-6.06,8.7-13.07,14.56-24.41,15.52,19.22-19.78,30.12-42.07,28.68-69.52a14.93,14.93,0,0,1,1.07,2c4.11,11.57,9.48,22.9,11.92,34.82,2.19,10.73,1.87,22.15,1.34,33.2a48.38,48.38,0,0,0,4.69,23.69C260.79,404.54,261.14,405.32,261.66,406.45Z" transform="translate(-200.05 -79.63)"/><path d="M240.15,204.88c.58-8.76,1.34-16.89,1.61-25,.35-10.77-1.11-21.39-5.29-31.36-2.07-5-5.47-9.32-7.95-14.12a8.07,8.07,0,0,1-.77-5.44,28.46,28.46,0,0,1,3.92-7.83c3.87-5.58,4.51-5.61,10.24-1.95l4.21-4.56.75.25v8.61l5-4a31.23,31.23,0,0,0,.35,3.18c.4,1.78.36,4.1,1.48,5.18,2.74,2.64,6.07,4.76,10.23,4,3.66-.66,5.3-3.92,3.55-7.5a14.36,14.36,0,0,0-4-4.57c-4.69-3.74-9.57-7.23-14.3-10.91-4.46-3.46-5.15-8-3.64-13.21A29.25,29.25,0,0,1,255.64,81c2.58-2.11,4.38-1.77,6.83.54C275.59,93.9,288.7,106.26,302,118.41c1.41,1.29,3.92,1.68,6,1.91,31.26,3.56,52.09,21.29,66,48.45a7.18,7.18,0,0,1,.25,1.59c-12.06-15-26.49-26.73-42.43-36.51-6.05-3.72-12.88-6.25-19.51-8.92a12,12,0,0,0-6.72-.17,5.91,5.91,0,0,1-6.15-1.72q-16.07-15.9-32.27-31.66c-.46-.46-.94-.89-1.4-1.33-2.79,1.88-4.48,4.14-4.29,7.7.05,1-1.41,2-2.17,3.08a12.94,12.94,0,0,1-2.5-2.58,25.43,25.43,0,0,1-1.47-4.31c-4.65,3.45-4.57,6.58-.35,10.38,6.73,6.05,13.44,12.17,19.69,18.7,4.32,4.51,4.77,10.41,3,16.26-1.2,3.95-5.26,5.79-9.7,3.55a123.13,123.13,0,0,1-16.44-10.47c-4.23-3.07-8-6.73-12-10.19-1.74-1.53-2.81-1.3-4.11.68-4.89,7.52-4.89,7.42,1.12,13.77,10.28,10.84,16.15,23.47,15,38.73C250.73,186.15,246.72,195.75,240.15,204.88Z" transform="translate(-200.05 -79.63)"/><path d="M332.06,353.79c-14.12-6-25.79-15.15-31.82-29.81-5.87-14.27-6.5-10.5,5.33-19.34,6.19-4.62,13.49-7.75,20.71-11.79-8.14-5.88-16.47-11.92-24.8-18l0-.64a87.27,87.27,0,0,1,9.33,1c8.73,1.89,16.56,5.95,24,10.79a3.35,3.35,0,0,1,.93,2.89c-3.49,14.67-3.84,29.58-3.65,44.54C332.13,340.15,332.06,346.79,332.06,353.79Zm-10.23-18.3c-.29-9-2.77-16.27-7.5-22.79-1.17-1.61-2.25-3-4.49-1.55S306,315.7,307,317.43A70,70,0,0,0,321.83,335.49Z" transform="translate(-200.05 -79.63)"/><path d="M528.51,496.86h7.32v45.33c-6.05,1.36-7,1-10.41-3.9-6.29-9-12.59-18.09-19.47-28v32.12h-7.69V497.08c4.72-1.15,8.09-.26,10.91,4.26,5.26,8.41,11.24,16.37,16.93,24.51.59.84,1.24,1.64,2.41,3.17Z" transform="translate(-200.05 -79.63)"/><path d="M466,496.74a22.94,22.94,0,1,1-23,22.92A23.05,23.05,0,0,1,466,496.74Zm15.17,22.9A15.07,15.07,0,0,0,466,504.49a15.32,15.32,0,0,0-15.43,15.34,15.59,15.59,0,0,0,15.27,15.28A15.4,15.4,0,0,0,481.13,519.64Z" transform="translate(-200.05 -79.63)"/><path d="M407.07,542.38v-46c7,.44,13.95.34,20.72,1.47,5.76,1,9.15,5.16,9.77,11.23.55,5.49-1.87,9.76-7.3,12.72-.38.21-.73.45-1.4.87,3,6.5,6,13,9.19,20a63,63,0,0,1-7.09-.09,3.59,3.59,0,0,1-2.17-1.88c-2-4-3.81-8.08-5.67-12.14-2.32-5.07-2.32-5.07-8.28-4.77v18.64Zm7.78-26.26c2.3,0,4.35,0,6.4,0a19.15,19.15,0,0,0,2.92-.3c3.74-.7,5.74-2.7,5.71-5.63s-2.2-5.17-5.83-5.51c-3-.28-6-.06-9.2-.06Z" transform="translate(-200.05 -79.63)"/><path d="M207.75,516.05h22.46v7.43H207.74V534.8H230.2v7.83H200.05V497h30.23v7.45H207.75Z" transform="translate(-200.05 -79.63)"/><path d="M309.68,524v18.59h-7.46V496.47c6.6.3,13.17.08,19.56,1,7.05,1.06,11,6.17,11,12.67s-3.9,11.31-10.94,12.72C318,523.66,314.05,523.61,309.68,524Zm.28-8.24c3.33,0,6.29.23,9.2-.05,3.66-.35,5.82-2.61,5.83-5.5s-2.16-5.18-5.81-5.51c-3-.28-6-.06-9.22-.06Z" transform="translate(-200.05 -79.63)"/><path d="M357.17,242.47c-16.55,3.54-34.44-6.24-39.85-21.22-2-5.46-1.52-9.76,1.44-13.31,2.85,4.25,5.7,8.49,8.91,13.29,3.08-6.71,7.13-10.44,14-9a24.58,24.58,0,0,1,6.93,2.72c4.58,2.61,8.11,6.39,11.52,11.06-4.81-1.51-9-2.91-13.23-4.14-2.91-.85-5.86-.73-7.54,2.17s-.55,5.95,1.83,7.93A130.19,130.19,0,0,0,352,239.75,57.08,57.08,0,0,0,357.17,242.47Z" transform="translate(-200.05 -79.63)"/><path d="M350.48,496.75l18.36,45.87c-2.53,0-4.72.3-6.75-.12a4.44,4.44,0,0,1-2.51-2.69c-.8-2.32-2-3.21-4.53-3-3.37.25-6.77-.07-10.14.15-1,.07-2.58,1-2.77,1.83-.83,3.52-3,4.34-6.2,3.89a29.94,29.94,0,0,0-3.72,0C338.26,527.46,344.17,512.62,350.48,496.75Zm0,20.66-4.61,11.5h9.26Z" transform="translate(-200.05 -79.63)"/><path d="M397.22,496.93v7.45H386.1v38h-7.9v-37.9H367v-7.56Z" transform="translate(-200.05 -79.63)"/><path d="M406.73,247.35c1.07-8.29-.8-15.61-3.89-22.61-3-6.8-6.35-13.46-10-21.08,14.2,12.18,28,23.31,46.24,26.59-4.52,4.2-11.57,4.88-23.48,2.28C415.63,239,413,243.87,406.73,247.35Z" transform="translate(-200.05 -79.63)"/><path d="M274.08,165.76c14.3-2.82,27.47-7.66,36-19.26-2.81-3.18-5.55-6.12-8.09-9.22a17.8,17.8,0,0,1-2.57-4.51c-1.46-3.55.19-6,4-5.57,4.11.45,8,1.29,9.88,6.07s5.32,8.47,10.91,9.3C314.72,160.11,294.44,168.49,274.08,165.76Zm36.13-28.47c.89-4.43-2.64-7.52-7.31-6.41C303.5,134.14,306.46,136.73,310.21,137.29Z" transform="translate(-200.05 -79.63)"/><path d="M240,496.83h7.39v38h16.7v7.62H240Z" transform="translate(-200.05 -79.63)"/><path d="M495.1,490.69l-10.78,10.64-4-4.45L491,486.44Z" transform="translate(-200.05 -79.63)"/></svg>